<svg xmlns="http://www.w3.org/2000/svg" width="181.254" height="40.457"><path fill="#4F4A4A" d="M61.766 29.07h-2.97v-7.912c0-1.332-.212-2.299-.635-2.902s-1.049-.904-1.876-.904c-.432 0-.864.081-1.296.243s-.837.392-1.215.688a5.365 5.365 0 00-1.013 1.053 4.835 4.835 0 00-.688 1.336v8.397h-2.97v-14.12h2.7v2.835c.54-.954 1.323-1.705 2.349-2.254 1.026-.549 2.16-.823 3.402-.823.846 0 1.539.153 2.079.459s.967.725 1.283 1.255c.314.531.535 1.143.661 1.836.126.693.189 1.427.189 2.201v8.612zM71.621 29.34c-1.098 0-2.097-.193-2.997-.58a6.979 6.979 0 01-2.309-1.58 7.11 7.11 0 01-1.485-2.322 7.517 7.517 0 01-.527-2.808c0-.99.176-1.931.527-2.821a7.24 7.24 0 011.485-2.349 6.87 6.87 0 012.309-1.593c.9-.387 1.908-.58 3.024-.58 1.098 0 2.092.198 2.983.594a7.148 7.148 0 012.282 1.58 6.757 6.757 0 011.444 2.295 7.627 7.627 0 01.419 3.82H67.463a4.85 4.85 0 00.445 1.701c.243.505.558.941.945 1.311.387.369.828.652 1.323.85a4.125 4.125 0 001.553.297c.396 0 .787-.049 1.174-.148a4.054 4.054 0 001.066-.432c.324-.189.612-.418.864-.688.252-.271.45-.567.594-.892l2.538.729c-.486 1.062-1.292 1.931-2.417 2.605s-2.433 1.011-3.927 1.011zm4.293-8.397a4.75 4.75 0 00-.446-1.647c-.243-.504-.553-.932-.931-1.283s-.819-.625-1.323-.823a4.317 4.317 0 00-1.593-.297 4.216 4.216 0 00-2.89 1.12 4.062 4.062 0 00-.918 1.283 4.942 4.942 0 00-.432 1.647h8.533zM98.891 14.949h2.835l-5.94 14.122h-2.457l-2.619-6.562-2.62 6.561h-2.457l-5.967-14.122h2.835l4.563 11.259 2.052-5.238-2.457-5.994h2.43l1.62 4.428 1.593-4.428h2.43l-2.43 5.994 2.052 5.238 4.537-11.258z"/><path fill="#F69729" d="M107.53 29.34c-.792 0-1.499-.158-2.12-.473s-1.146-.738-1.579-1.27a5.53 5.53 0 01-.985-1.862 7.397 7.397 0 01-.338-2.255 8.58 8.58 0 01.648-3.28 9.862 9.862 0 011.715-2.794 8.388 8.388 0 012.483-1.944 6.384 6.384 0 012.956-.729c1.08 0 1.976.292 2.688.877a4.875 4.875 0 011.525 2.173l1.809-8.424h2.376l-3.563 16.794a2.144 2.144 0 00-.041.188.886.886 0 00-.014.162c0 .323.198.495.594.513l-.432 2.053c-.198.035-.373.062-.526.08s-.293.027-.419.027c-.504 0-.887-.112-1.146-.338a1.101 1.101 0 01-.393-.877c0-.162.018-.359.055-.594.035-.234.099-.549.189-.945-.703.918-1.549 1.633-2.539 2.146s-1.971.772-2.943.772zm1.027-2.053c.395 0 .822-.08 1.281-.242s.909-.387 1.351-.676c.44-.287.841-.625 1.202-1.012.359-.387.629-.797.81-1.229l.837-4.05a3.638 3.638 0 00-.405-1.282 4.057 4.057 0 00-.796-1.053 3.715 3.715 0 00-1.053-.702 2.95 2.95 0 00-1.202-.257c-.756 0-1.468.185-2.133.554a6.341 6.341 0 00-1.769 1.458 7.13 7.13 0 00-1.215 2.039 6.163 6.163 0 00-.445 2.269c0 .576.08 1.119.242 1.633s.4.959.716 1.336c.315.379.688.676 1.12.892.432.215.918.322 1.459.322zM123.893 29.34c-.793 0-1.499-.158-2.12-.473s-1.147-.738-1.579-1.27a5.531 5.531 0 01-.986-1.862 7.427 7.427 0 01-.337-2.255c0-1.134.216-2.227.647-3.28.432-1.053 1.004-1.984 1.715-2.794s1.539-1.458 2.484-1.944a6.381 6.381 0 012.956-.729c1.08 0 1.976.292 2.687.877s1.219 1.31 1.525 2.173l.621-2.808h2.376l-2.376 11.179a3.256 3.256 0 00-.041.188.985.985 0 00-.014.162c0 .323.199.495.595.513l-.433 2.053a9.336 9.336 0 01-.525.08 3.63 3.63 0 01-.419.027c-.505 0-.887-.112-1.147-.338a1.1 1.1 0 01-.392-.877c0-.287.081-.801.243-1.539a7.537 7.537 0 01-2.538 2.146c-.99.515-1.972.771-2.942.771zm1.025-2.053c.396 0 .823-.08 1.282-.242s.909-.387 1.351-.676c.44-.287.841-.625 1.201-1.012.359-.387.63-.797.811-1.229l.836-4.05a3.616 3.616 0 00-.404-1.282 4.082 4.082 0 00-.797-1.053c-.314-.297-.666-.531-1.053-.702s-.787-.257-1.201-.257c-.756 0-1.468.185-2.133.554a6.36 6.36 0 00-1.77 1.458 7.152 7.152 0 00-1.215 2.039 6.163 6.163 0 00-.445 2.269c0 .576.081 1.119.243 1.633.161.514.4.959.716 1.336.314.379.688.676 1.12.892s.918.322 1.458.322zM135.961 14.976h2.457l2.24 12.015a73.021 73.021 0 001.634-2.227 45.62 45.62 0 001.472-2.229l-1.891-7.56h2.457l1.08 4.563a25.528 25.528 0 001.756-4.563h2.268a30.296 30.296 0 01-1.363 3.74 31.69 31.69 0 01-1.957 3.74l1.106 4.535a51.002 51.002 0 003.767-6.007c1.053-1.989 1.84-3.991 2.362-6.008h2.269c-.648 2.358-1.625 4.708-2.93 7.048-1.306 2.34-2.876 4.688-4.712 7.047h-2.565l-.998-3.97a58.89 58.89 0 01-2.998 3.97h-2.564l-2.89-14.094zM158.505 14.976h2.16L160.018 18a8.248 8.248 0 012.78-2.376c1.116-.594 2.269-.891 3.456-.891 1.135 0 1.931.302 2.39.904.459.604.688 1.409.688 2.417 0 .396-.031.81-.095 1.242s-.14.882-.229 1.35l-1.781 8.424h-2.377l1.674-7.884c.162-.774.244-1.449.244-2.025 0-1.529-.64-2.295-1.918-2.295-.449 0-.922.095-1.417.284s-.977.445-1.444.77a7.143 7.143 0 00-2.295 2.646l-1.809 8.505h-2.377l2.997-14.095z"/><g><path fill="#4F4A4A" d="M140.774 33.667a.65.65 0 01-.157.18.358.358 0 01-.213.06.517.517 0 01-.248-.072c-.088-.048-.188-.103-.299-.162a2.491 2.491 0 00-.383-.163 1.545 1.545 0 00-.49-.072c-.316 0-.553.067-.707.203a.684.684 0 00-.232.547c0 .146.046.269.139.365.094.097.217.18.368.25s.325.134.521.192c.194.059.394.123.598.195.203.071.402.155.597.252.195.097.368.221.521.37.151.15.273.333.367.548s.141.474.141.777c0 .337-.059.651-.176.945a2.211 2.211 0 01-.508.768c-.221.218-.494.39-.819.515s-.694.188-1.108.188a3.5 3.5 0 01-.691-.07 3.948 3.948 0 01-1.303-.5 2.65 2.65 0 01-.506-.39l.5-.79a.444.444 0 01.371-.201c.1 0 .2.032.303.095.102.063.216.134.344.21.129.077.276.147.443.21.166.063.363.096.59.096.307 0 .545-.067.715-.203.17-.135.255-.349.255-.643a.6.6 0 00-.14-.414 1.104 1.104 0 00-.367-.266 3.345 3.345 0 00-.518-.185c-.193-.054-.393-.112-.596-.178s-.401-.146-.595-.24-.366-.22-.518-.375-.274-.348-.367-.58c-.094-.231-.14-.518-.14-.857a2.053 2.053 0 01.649-1.495c.214-.203.476-.365.785-.487.31-.121.665-.183 1.065-.183.223 0 .44.018.652.053.211.035.412.087.602.155s.368.149.533.245c.165.095.312.202.442.322l-.42.785z"/><path fill="#F69729" d="M149.324 35.827c0 .526-.091 1.017-.272 1.47s-.438.848-.768 1.183-.728.598-1.192.787c-.465.19-.98.285-1.548.285a4.078 4.078 0 01-1.55-.285c-.467-.189-.865-.452-1.197-.787s-.588-.729-.77-1.183a3.887 3.887 0 01-.273-1.47c0-.527.091-1.018.273-1.471.182-.453.438-.847.77-1.18s.73-.595 1.197-.785a4.094 4.094 0 011.55-.285 4.02 4.02 0 011.548.288c.465.191.862.454 1.192.787s.586.727.768 1.18c.181.454.272.943.272 1.466zm-1.73 0c0-.36-.047-.685-.14-.973a2.052 2.052 0 00-.402-.732c-.175-.2-.39-.354-.643-.46a2.205 2.205 0 00-.865-.16c-.327 0-.617.053-.872.16-.256.106-.471.26-.645.46a2.01 2.01 0 00-.403.732c-.093.288-.14.612-.14.973 0 .363.047.688.14.977.093.289.228.533.403.733.174.199.389.353.645.457.255.105.545.157.872.157.323 0 .612-.052.865-.157.253-.104.468-.258.643-.457.175-.2.31-.444.402-.733.093-.288.14-.614.14-.977z"/><path fill="#4F4A4A" d="M151.824 38.122h2.7v1.35h-4.39v-7.285h1.689v5.935zM162.104 39.472h-1.31c-.146 0-.267-.034-.362-.103s-.16-.155-.197-.263l-.43-1.27h-2.771l-.431 1.27c-.033.094-.098.178-.194.253s-.215.112-.354.112h-1.32l2.82-7.285h1.729l2.82 7.286zm-4.68-2.785h1.99l-.67-1.995-.152-.447a11.908 11.908 0 01-.173-.558c-.054.203-.108.392-.165.565a7.755 7.755 0 01-.16.45l-.67 1.985zM164.385 36.776v2.695h-1.69v-7.285h2.37c.526 0 .976.055 1.348.163.371.108.675.259.91.452.234.193.405.422.512.685.107.264.16.551.16.86 0 .236-.031.46-.095.67a2.056 2.056 0 01-.743 1.061c-.182.14-.391.255-.627.345.113.057.219.127.317.21s.185.185.257.305l1.551 2.535h-1.53c-.283 0-.486-.106-.61-.32l-1.209-2.114a.508.508 0 00-.188-.2.63.63 0 00-.303-.061h-.43zm0-1.165h.68c.23 0 .426-.028.588-.087.161-.059.293-.14.396-.243a.92.92 0 00.226-.362c.046-.138.069-.287.069-.447 0-.32-.104-.57-.312-.75-.208-.18-.53-.27-.967-.27h-.68v2.159z"/><circle fill="#F69729" cx="145.433" cy="35.887" r="4.087"/></g><g><circle fill="#F69729" cx="22.173" cy="20.299" r="19.5"/><circle fill="#F7BD29" cx="22.174" cy="20.299" r="14.04"/><circle fill="#F9ED35" cx="22.173" cy="20.299" r="7.988"/></g></svg>