<svg xmlns="http://www.w3.org/2000/svg" data-name="Layer 1" viewBox="0 0 512 640" x="0px" y="0px"><title>Green House</title><path d="M284.831,238.333a27.949,27.949,0,0,0-3.908,45.459l32.12-61.979Z"/><path d="M227.3,287.324l-27.578-16.148,32.6,60.667a27.943,27.943,0,0,0-5.018-44.519Z"/><path d="M185.1,309.714a27.736,27.736,0,0,0,19.755,28.6l.035.01a27.668,27.668,0,0,0,15.18.313l-32.89-61.215Z"/><path d="M381,162.95V48.5c0-3.866-3.618-6.5-7.484-6.5h-67A6.189,6.189,0,0,0,300,48.5V88.55L264.29,58.707a7.166,7.166,0,0,0-9.173.032L42.761,239.959a7.011,7.011,0,0,0-1.844,8.251l19.026,41.363a6.987,6.987,0,0,0,4.7,3.875,7.524,7.524,0,0,0,6.2-1.285L82,283.632V463.5c0,3.866,2.649,7.5,6.516,7.5h332A7.869,7.869,0,0,0,428,463.5V282.882l12.086,9.259a6.736,6.736,0,0,0,5.68,1.218,6.893,6.893,0,0,0,4.595-3.669l20.8-41.159a6.974,6.974,0,0,0-1.573-8.431ZM311.39,302.7a41.052,41.052,0,0,1-24.331-.014L259,357.136V408.46a7,7,0,1,1-14,0V384.438l-.163-.006-18.024-33.249a41.961,41.961,0,0,1-55.682-42.393l3.65-56.688c0-.029.009-.056.011-.084a6.948,6.948,0,0,1,.1-.776c0-.014,0-.028.006-.042a7.008,7.008,0,0,1,.2-.778c.024-.074.052-.146.078-.219.066-.186.14-.37.222-.55.033-.072.064-.143.1-.213a7.1,7.1,0,0,1,.36-.642c.01-.017.019-.035.03-.052a7.044,7.044,0,0,1,.492-.665c.033-.04.069-.077.1-.116.144-.166.3-.326.458-.479q.079-.076.162-.15c.158-.14.322-.273.494-.4.055-.04.107-.082.162-.121a6.9,6.9,0,0,1,.691-.429l.018-.008.01-.007c.023-.012.047-.019.069-.031a7.09,7.09,0,0,1,.674-.305c.077-.029.155-.055.232-.082q.284-.1.57-.174c.077-.019.155-.04.233-.057.223-.049.448-.087.673-.114.041,0,.082-.014.123-.018a7.124,7.124,0,0,1,.812-.034c.059,0,.117.007.175.009.209.009.416.025.623.052.085.011.169.024.254.038.2.033.388.075.58.124.07.018.141.033.211.053a7.043,7.043,0,0,1,.752.263c.047.02.092.044.139.065a6.749,6.749,0,0,1,.607.305c.031.017.064.029.095.047l49.1,28.753a41.941,41.941,0,0,1,4.684,69.192l5.62,10.46a6.992,6.992,0,0,1,.755-2.707l28.9-55.773a42.069,42.069,0,0,1-15.462-21.529l-.011-.034a42.034,42.034,0,0,1,18.822-48.6L326.86,197.5c.022-.013.045-.021.067-.034a7.023,7.023,0,0,1,.736-.369l.032-.012a7.179,7.179,0,0,1,.726-.255c.077-.022.153-.041.229-.06.2-.051.391-.092.589-.126.072-.012.143-.026.215-.035a6.886,6.886,0,0,1,1.624-.032c.057,0,.114.014.172.022q.32.039.638.108c.072.016.143.032.215.05q.314.079.624.19c.057.02.116.036.172.058a7.268,7.268,0,0,1,.719.32c.012.006.023.014.034.02l.03.013c.041.022.077.05.117.073.2.109.386.225.567.349.068.047.133.1.2.146q.248.183.475.385c.054.047.107.093.159.142a6.841,6.841,0,0,1,.54.565l.018.019a7.311,7.311,0,0,1,.49.663c.033.051.063.105.095.157.109.177.21.357.3.542.036.073.072.147.106.221.088.191.166.386.236.583.02.057.044.112.063.17a7.066,7.066,0,0,1,.2.772c.012.061.019.122.03.183.038.215.066.43.084.648,0,.039.012.076.015.114l3.672,56.713A41.636,41.636,0,0,1,311.39,302.7Z"/><path d="M325.03,229.111,293.5,289.952a28,28,0,0,0,33.566-29.224Z"/><text x="0" y="527" fill="#000000" font-size="5px" font-weight="bold" font-family="'Helvetica Neue', Helvetica, Arial-Unicode, Arial, Sans-serif">Created by Shastry</text><text x="0" y="532" fill="#000000" font-size="5px" font-weight="bold" font-family="'Helvetica Neue', Helvetica, Arial-Unicode, Arial, Sans-serif">from the Noun Project</text></svg>