<svg xmlns="http://www.w3.org/2000/svg" xmlns:xlink="http://www.w3.org/1999/xlink" version="1.1" x="0px" y="0px" viewBox="0 0 64 80" style="enable-background:new 0 0 64 64;" xml:space="preserve"><g><circle cx="51" cy="53" r="3"/><path d="M59.236,49.384l0.755-1.534l-3.841-3.841l-1.534,0.755c-0.116-0.052-0.233-0.101-0.35-0.146L53.716,43h-5.432l-0.551,1.617   c-0.117,0.046-0.233,0.095-0.35,0.146l-1.534-0.755l-3.841,3.841l0.755,1.534c-0.052,0.116-0.101,0.233-0.146,0.35L41,50.284v5.432   l1.617,0.551c0.046,0.117,0.095,0.233,0.146,0.35l-0.755,1.534l3.841,3.841l1.534-0.755c0.116,0.052,0.233,0.101,0.35,0.146   L48.284,63h5.432l0.551-1.617c0.117-0.046,0.233-0.095,0.35-0.146l1.534,0.755l3.841-3.841l-0.755-1.534   c0.052-0.116,0.101-0.233,0.146-0.35L61,55.716v-5.432l-1.617-0.551C59.337,49.617,59.288,49.5,59.236,49.384z M51,58   c-2.757,0-5-2.243-5-5s2.243-5,5-5s5,2.243,5,5S53.757,58,51,58z"/><path d="M11,24.315V41h6V24.315C16.089,24.75,15.075,25,14,25S11.911,24.75,11,24.315z"/><path d="M21,49H9v-2h12v-1c0-1.654-1.346-3-3-3h-8c-1.654,0-3,1.346-3,3v5h12v2H7v2h14V49z"/><circle cx="14" cy="18" r="1"/><path d="M24,57H4c-0.551,0-1,0.449-1,1v3h22v-3C25,57.449,24.551,57,24,57z"/><path d="M20.725,19.923l24.314-8.272c-0.601-0.978-0.967-2.111-1.023-3.327l-25.101,4.699C20.201,14.294,21,16.055,21,18   C21,18.668,20.9,19.311,20.725,19.923z"/><path d="M14,23c2.757,0,5-2.243,5-5s-2.243-5-5-5s-5,2.243-5,5S11.243,23,14,23z M14,15c1.654,0,3,1.346,3,3s-1.346,3-3,3   s-3-1.346-3-3S12.346,15,14,15z"/><path d="M51,13c2.757,0,5-2.243,5-5s-2.243-5-5-5s-5,2.243-5,5S48.243,13,51,13z M51,5c1.654,0,3,1.346,3,3s-1.346,3-3,3   s-3-1.346-3-3S49.346,5,51,5z"/><polygon points="56.649,27 55,27 55,30 58,31.382 58,38.192 57,41 61,38.52 61,30.48  "/><path d="M49,14.705V31h4V14.705C52.366,14.895,51.695,15,51,15S49.634,14.895,49,14.705z"/><polygon points="41,38.52 45,41 44,38.192 44,31.382 47,30 47,27 45.351,27 41,30.48  "/><circle cx="51" cy="8" r="1"/></g><text x="0" y="79" fill="#000000" font-size="5px" font-weight="bold" font-family="'Helvetica Neue', Helvetica, Arial-Unicode, Arial, Sans-serif">Created by Eucalyp</text><text x="0" y="84" fill="#000000" font-size="5px" font-weight="bold" font-family="'Helvetica Neue', Helvetica, Arial-Unicode, Arial, Sans-serif">from the Noun Project</text></svg>