<svg class="fill-current text-teal inline-block h-12 w-12" xmlns="http://www.w3.org/2000/svg" viewBox="0 0 48 60"><path d="M5.8 43.8h36.4V48H5.8zM33.8 0H14.2l-3.6 6.6h26.8zM20.2 34.2h7.5v7.7h9.6V8.6H10.6v33.3h9.7v-7.7zM29.6 12H34v5.6h-4.4V12zm0 9.8H34v5.6h-4.4v-5.6zm0 9.8H34v5.6h-4.4v-5.6zM21.8 12h4.4v5.6h-4.4V12zm0 9.8h4.4v5.6h-4.4v-5.6zm-3.4 15.3H14v-5.6h4.4v5.6zm0-9.7H14v-5.6h4.4v5.6zm0-9.8H14V12h4.4v5.6z"/><text y="68" font-size="5" font-weight="bold" font-family="'Helvetica Neue', Helvetica, Arial-Unicode, Arial, Sans-serif">from the Noun Project</text></svg>