<svg xmlns="http://www.w3.org/2000/svg" xmlns:xlink="http://www.w3.org/1999/xlink" version="1.1" x="0px" y="0px" viewBox="10.937 33.64 490.829 556.78" enable-background="new 10.937 33.64 490.829 445.424" xml:space="preserve"><g><path d="M335.455,128.033c1.178,1.221,2.748,1.835,4.32,1.835c1.499,0,3-0.559,4.164-1.681c2.385-2.3,2.454-6.098,0.154-8.483   l-7.618-7.9c-2.301-2.386-6.099-2.453-8.484-0.154c-2.385,2.3-2.454,6.098-0.154,8.484L335.455,128.033z"/><path d="M276.043,111.803l-7.618,7.9c-2.3,2.385-2.23,6.184,0.154,8.483c1.164,1.123,2.665,1.681,4.164,1.681   c1.572,0,3.143-0.614,4.32-1.835l7.618-7.9c2.3-2.386,2.23-6.184-0.154-8.484C282.142,109.349,278.344,109.417,276.043,111.803z"/><path d="M336.884,89.015c0,3.313,2.687,6,6,6h10.767c3.313,0,6-2.687,6-6s-2.687-6-6-6h-10.767   C339.57,83.015,336.884,85.702,336.884,89.015z"/><path d="M334.822,89.014c0-16.284-12.818-29.531-28.575-29.531c-15.743,0-28.551,13.248-28.551,29.531   c0,16.26,12.808,29.489,28.551,29.489C322.004,118.503,334.822,105.274,334.822,89.014z M306.247,106.503   c-9.126,0-16.551-7.845-16.551-17.489c0-9.667,7.425-17.531,16.551-17.531c9.14,0,16.575,7.864,16.575,17.531   C322.822,98.658,315.387,106.503,306.247,106.503z"/><path d="M300.247,127.109v11.234c0,3.313,2.687,6,6,6s6-2.687,6-6v-11.234c0-3.313-2.687-6-6-6S300.247,123.795,300.247,127.109z"/><path d="M332.155,68.067c1.579,0,3.155-0.62,4.334-1.85l7.618-7.953c2.292-2.393,2.21-6.191-0.183-8.483   c-2.394-2.293-6.19-2.209-8.483,0.183l-7.618,7.953c-2.292,2.393-2.21,6.191,0.183,8.483   C329.169,67.514,330.663,68.067,332.155,68.067z"/><path d="M258.845,95.015h10.788c3.313,0,6-2.687,6-6s-2.687-6-6-6h-10.788c-3.313,0-6,2.687-6,6S255.531,95.015,258.845,95.015z"/><path d="M276.029,66.217c1.179,1.23,2.755,1.85,4.334,1.85c1.492,0,2.986-0.553,4.149-1.667c2.393-2.292,2.475-6.09,0.183-8.483   l-7.618-7.953c-2.292-2.393-6.09-2.476-8.483-0.183c-2.393,2.292-2.475,6.09-0.183,8.483L276.029,66.217z"/><path d="M306.247,56.874c3.313,0,6-2.687,6-6V39.64c0-3.313-2.687-6-6-6s-6,2.687-6,6v11.234   C300.247,54.188,302.934,56.874,306.247,56.874z"/><path d="M477.321,331.636l-47.47-22.613V281.28c0-3.313-2.687-6-6-6h-25.333c-3.313,0-6,2.687-6,6v9.948l-34.14-16.258   c-1.633-0.777-3.528-0.778-5.161,0.001l-118.907,56.665c-2.531,1.206-3.89,4.004-3.271,6.739c0.618,2.734,3.048,4.677,5.852,4.677   h35.11v100.696h-51.309v-42.001c0-3.313-2.687-6-6-6H106.415v-46.837h26.951c3.313,0,6-2.687,6-6v-11.317c0-3.313-2.687-6-6-6   H112.12v-27.608h32.599c0.39,0.08,0.791,0.129,1.202,0.129c0.183,0,0.367-0.008,0.552-0.024c0.232-0.021,0.458-0.058,0.68-0.104   h36.829c1.733,0,3.382-0.75,4.522-2.057c1.139-1.306,1.658-3.041,1.422-4.759l-4.035-29.413c-0.009-0.474-0.075-0.932-0.188-1.373   l-3.603-26.263c0.007-0.117,0.018-0.232,0.018-0.35c0-0.688-0.122-1.346-0.335-1.962l-8.171-59.557   c-0.408-2.971-2.946-5.185-5.944-5.185h-32.539c-0.003,0-0.007,0-0.01,0h-30.348V98.301h141.16c3.313,0,6-2.687,6-6s-2.687-6-6-6   H98.771c-3.313,0-6,2.687-6,6v74.766H65.573c-0.006,0-0.012,0-0.018,0H33.243c-3,0-5.54,2.216-5.945,5.189l-3.112,22.817   l-4.926,35.88c-0.448,0.841-0.704,1.799-0.704,2.818c0,0.441,0.051,0.87,0.141,1.283l-3.331,24.263   c-0.367,0.777-0.579,1.642-0.579,2.558c0,0.342,0.035,0.675,0.09,1.001l-3.885,28.293c-0.236,1.718,0.283,3.453,1.422,4.76   s2.788,2.057,4.522,2.057h36.589c0.221,0.046,0.446,0.083,0.677,0.104c0.186,0.018,0.37,0.025,0.553,0.025   c0.411,0,0.812-0.049,1.202-0.129h32.845v27.608h-21.27c-3.313,0-6,2.687-6,6v11.317c0,3.313,2.687,6,6,6h26.882v52.837   c0,3.313,2.687,6,6,6h108.278v42.001c0,3.313,2.687,6,6,6h57.309v17.315c0,3.313,2.687,6,6,6h155.616c3.313,0,6-2.687,6-6V343.053   h35.123c2.804,0,5.234-1.942,5.853-4.678C481.212,335.641,479.854,332.842,477.321,331.636z M97.585,336.911   c1.332-0.698,2.369-1.883,2.876-3.317c0.507,1.435,1.544,2.619,2.876,3.317H97.585z M93.194,179.067v18.241H69.44l1.667-18.241   H93.194z M129.58,179.067l1.666,18.241h-26.052v-18.241H129.58z M147.173,239.771h23.59l2.209,16.104h-24.329L147.173,239.771z    M136.594,255.875h-31.4v-16.104h29.93L136.594,255.875z M169.117,227.771h-23.039l-1.686-18.463h22.192L169.117,227.771z    M134.028,227.771h-28.834v-18.463h27.148L134.028,227.771z M93.194,209.308v18.463H66.656l1.688-18.463H93.194z M54.605,227.771   H31.81l2.535-18.463h21.949L54.605,227.771z M30.162,239.771h23.347l-1.472,16.104H27.951L30.162,239.771z M65.559,239.771h27.635   v16.104H64.087L65.559,239.771z M93.194,267.875v18.11h-31.86l1.655-18.11H93.194z M105.194,267.875h32.496l1.654,18.11H106.12   h-0.926V267.875z M151.393,285.985l-1.654-18.11h24.879l2.485,18.11H151.393z M164.938,197.308h-21.642l-1.666-18.241h20.805   L164.938,197.308z M38.48,179.067h20.577l-1.667,18.241H35.992l0.084-0.608L38.48,179.067z M26.303,267.875H50.94l-1.655,18.11   H23.817L26.303,267.875z M338.474,467.063v-64.245h34.688v64.245H338.474z M427.618,467.064h-42.457v-70.247c0-3.313-2.687-6-6-6   h-46.688c-3.313,0-6,2.687-6,6v70.247h-42.472V343.053h143.616V467.064z M433.618,331.053H278.002H263.43l92.37-44.019   l40.139,19.114c1.857,0.883,4.042,0.756,5.783-0.344c1.741-1.099,2.797-3.015,2.797-5.073V287.28h13.333v25.53   c0,2.313,1.331,4.422,3.42,5.417l26.923,12.825H433.618z"/><path d="M462.614,188.213c3.313,0,6-2.687,6-6v-12.209c0-3.313-2.687-6-6-6s-6,2.687-6,6v12.209   C456.614,185.526,459.301,188.213,462.614,188.213z"/><path d="M475.691,189.429c0.52,0.139,1.041,0.205,1.554,0.205c2.65,0,5.075-1.77,5.793-4.452l3.157-11.811   c0.855-3.201-1.046-6.49-4.247-7.346c-3.203-0.854-6.49,1.046-7.347,4.247l-3.157,11.811   C470.589,185.285,472.49,188.574,475.691,189.429z"/><path d="M442.345,186.21c0.72,2.679,3.143,4.445,5.791,4.445c0.515,0,1.039-0.067,1.56-0.207c3.2-0.859,5.099-4.15,4.239-7.351   l-3.158-11.762c-0.859-3.2-4.151-5.098-7.351-4.239c-3.2,0.859-5.099,4.15-4.239,7.351L442.345,186.21z"/><path d="M464.528,192.119c-20.52,0-37.214,16.694-37.214,37.215c0,11.131,4.975,21.629,13.451,28.677v20.874c0,3.313,2.687,6,6,6   h0.188v4.473c0,2.972,2.164,5.434,5.001,5.91v3.197c0,3.313,2.687,6,6,6h13.136c3.313,0,6-2.687,6-6v-3.197   c2.837-0.477,5.001-2.938,5.001-5.91v-4.473h0.197c3.313,0,6-2.687,6-6V258.01c8.493-7.063,13.478-17.561,13.478-28.676   C501.766,208.813,485.062,192.119,464.528,192.119z M478.863,250.116c-1.613,1.122-2.575,2.962-2.575,4.927v17.842h-0.197h-23.138   h-0.188v-17.842c0-1.966-0.963-3.808-2.578-4.929c-6.809-4.726-10.873-12.495-10.873-20.78c0-13.903,11.311-25.215,25.214-25.215   c13.916,0,25.237,11.312,25.237,25.215C489.766,237.602,485.69,245.371,478.863,250.116z"/></g><text x="10.937" y="494.06399999999996" fill="#000000" font-size="5px" font-weight="bold" font-family="'Helvetica Neue', Helvetica, Arial-Unicode, Arial, Sans-serif">Created by ibrandify</text><text x="10.937" y="499.06399999999996" fill="#000000" font-size="5px" font-weight="bold" font-family="'Helvetica Neue', Helvetica, Arial-Unicode, Arial, Sans-serif">from the Noun Project</text></svg>