<svg xmlns="http://www.w3.org/2000/svg" xmlns:xlink="http://www.w3.org/1999/xlink" version="1.1" x="0px" y="0px" viewBox="0 0 44 55" enable-background="new 0 0 44 44" xml:space="preserve"><path d="M22.795,7.978V6.093h5.459V1.989h-5.459h-1.59v5.989c-3.355,0.394-5.96,3.243-5.96,6.704h13.51  C28.755,11.221,26.15,8.372,22.795,7.978z"/><polygon points="31.848,21.671 31.848,16.045 12.152,16.045 12.152,21.671 22,17.969 "/><path d="M41.198,39.74V22.733h-9.035V39.74H30.8V22.733L22,19.426l-8.8,3.307V39.74h-1.362V22.733H2.803V39.74H0.19v2.271H43.81  V39.74H41.198z M37.289,25.489h2.134v4.589h-2.134V25.489z M37.289,32.394h2.134v4.588h-2.134V32.394z M33.937,25.489h2.135v4.589  h-2.135V25.489z M33.937,32.394h2.135v4.588h-2.135V32.394z M7.929,25.489h2.135v4.589H7.929V25.489z M7.929,32.394h2.135v4.588  H7.929V32.394z M4.577,25.489h2.134v4.589H4.577V25.489z M4.577,32.394h2.134v4.588H4.577V32.394z M15.759,39.74V26.904h5.11V39.74  H15.759z M23.13,39.74V26.904h5.111V39.74H23.13z"/><text x="0" y="59" fill="#000000" font-size="5px" font-weight="bold" font-family="'Helvetica Neue', Helvetica, Arial-Unicode, Arial, Sans-serif">Created by Jojo Ticon</text><text x="0" y="64" fill="#000000" font-size="5px" font-weight="bold" font-family="'Helvetica Neue', Helvetica, Arial-Unicode, Arial, Sans-serif">from the Noun Project</text></svg>