<svg class="fill-current text-teal inline-block h-12 w-12" xmlns="http://www.w3.org/2000/svg" viewBox="0 0 15.538 15.159" fill-rule="evenodd" clip-rule="evenodd" shape-rendering="geometricPrecision" text-rendering="geometricPrecision" image-rendering="optimizeQuality"><path class="fil0" d="M11.888.831l.605 3.204c1.6.472 2.01.712 3.045 2.012l-.84.573c-.829-1.378-2.924-1.916-4.486-1.288-1.769.746-2.486 2.184-2.221 4.104L7 9.43l-.087-.47-2.088-.018c-.541-1.624-2.774-2.372-4.297-1.1l-.021-.94c-.426-.031-.594-.95.019-1.26 0-1.337-.291-1.157 2.169-1.166.09-1.055-.188-.793.337-1.266.002-1.145-.104-.782.32-1.585l.04 1.619c.425.292.347.098.367 1.24l.964-.006.914-3.647L5.195.83c-.004-.102.398-.7.478-.83 6.364.151 4.315.072 6.364.151.3.002.468.68-.149.68zM1.581 5.111v1.554c0 .225-.239.235-.239 0V5.111c0-.23.239-.232.239 0zm.3 0v1.554c0 .225-.237.235-.237 0V5.111c0-.23.238-.232.238 0zm.294 0v1.554c0 .225-.238.235-.238 0V5.111c0-.23.238-.232.238 0zm.303-.008v1.554c0 .225-.238.235-.238 0V5.103c0-.23.238-.232.238 0zm.301 0v1.554c0 .225-.238.235-.238 0V5.103c0-.23.238-.232.238 0zm.293 0v1.554c0 .225-.238.235-.238 0V5.103c0-.23.238-.232.238 0zm6.426-.628H5.485l.918-3.6C6.631.793 9.058.843 9.501.846l-.003 3.63z"/><path class="fil0" d="M11.624 5.444a3.342 3.342 0 100 6.683 3.342 3.342 0 000-6.683zm.274 1.08c1.27.206 2.146 1.244 1.993 2.544-.135 1.145-1.212 2.164-2.556 1.984-1.16-.155-2.149-1.206-1.977-2.559.142-1.114 1.248-2.177 2.54-1.968zM2.604 7.455c.724.112 1.133.39 1.495.821.345.412.595 1.055.495 1.767-.169 1.2-1.242 2.17-2.618 1.974C.811 11.852-.17 10.78.025 9.4.18 8.304 1.24 7.245 2.605 7.455zm-.296 3.093c-1.06-.003-1.071-1.625 0-1.625 1.072 0 1.075 1.627 0 1.625z"/><path class="fil0" d="M11.94 6.821c1.166.236 1.838 1.194 1.661 2.29a1.993 1.993 0 01-2.28 1.654c-.998-.142-1.872-1.099-1.675-2.295.161-.981 1.133-1.882 2.293-1.649z"/><text y="27.127" font-size="5" font-weight="bold" font-family="'Helvetica Neue', Helvetica, Arial-Unicode, Arial, Sans-serif">Created by FELIX FX</text><text y="32.127" font-size="5" font-weight="bold" font-family="'Helvetica Neue', Helvetica, Arial-Unicode, Arial, Sans-serif">from the Noun Project</text></svg>