<svg xmlns="http://www.w3.org/2000/svg" data-name="Layer 1" viewBox="0 0 100 125" x="0px" y="0px"><title>business card-54</title><path d="M50,7.5A42.5,42.5,0,1,0,92.5,50,42.5,42.5,0,0,0,50,7.5ZM70.16,62.12a18.22,18.22,0,0,1-4.39,5.07,11.87,11.87,0,0,1-4.94,2.61,12.13,12.13,0,0,1-6.54-.58,24.76,24.76,0,0,1-9.73-6c-2.19-2-4.94-5.08-4.94-5.08a40.64,40.64,0,0,1-6.41-8.72,31.7,31.7,0,0,1-3-7.55,18.3,18.3,0,0,1-.58-6.68,18.09,18.09,0,0,1,.58-2.76c1.1-3.59,4.27-6.49,6.47-8.15a2.52,2.52,0,0,1,3.55.52l5.48,7.45A2.54,2.54,0,0,1,46,34.67a12.38,12.38,0,0,1-3.42,5.2,14.46,14.46,0,0,1-1.23.95h0l-.1.08c-.47.36-2.22,2,0,5a99.15,99.15,0,0,0,9.5,11.23h0l0,0c.74.68,2.76,2.16,4.55-.29h0c.74-1.19,3.33-5.88,5.17-4.9.44.24,6.17,4.65,9,7A2.51,2.51,0,0,1,70.16,62.12Z"/><text x="0" y="115" fill="#000000" font-size="5px" font-weight="bold" font-family="'Helvetica Neue', Helvetica, Arial-Unicode, Arial, Sans-serif">Created by fajar hasyim</text><text x="0" y="120" fill="#000000" font-size="5px" font-weight="bold" font-family="'Helvetica Neue', Helvetica, Arial-Unicode, Arial, Sans-serif">from the Noun Project</text></svg>