<svg xmlns="http://www.w3.org/2000/svg" viewBox="0 0 64 80"><path d="M48 28H34v14h14zm-2 6h-4v-4h4zm-6-4v4h-4v-4zm-4 6h4v4h-4zm6 4v-4h4v4zM26 38h2v6h-2z"/><path d="M62 44c0-3.976-1.374-8-4-8s-4 4.024-4 8c0 3.435 1.028 6.9 3 7.781V54h-5V26h9a1 1 0 00.6-1.8l-29-22a1 1 0 00-1.208 0l-29 22A1 1 0 003 26h9v28H7v-2.219c1.972-.881 3-4.346 3-7.781 0-3.976-1.374-8-4-8s-4 4.024-4 8c0 3.435 1.028 6.9 3 7.781V54H2v8h60v-8h-3v-2.219c1.972-.881 3-4.346 3-7.781zM4 44c0-3.722 1.3-6 2-6s2 2.278 2 6-1.295 6-2 6-2-2.278-2-6zm1.973-20L32 4.255 58.027 24zM14 26h36v28H32V36a8 8 0 00-16 0v18h-2zm16 28H18V36a6 6 0 0112 0zm30 6H4v-4h56zm-4-16c0-3.722 1.3-6 2-6s2 2.278 2 6-1.3 6-2 6-2-2.278-2-6z"/></svg>