<svg xmlns="http://www.w3.org/2000/svg" xmlns:xlink="http://www.w3.org/1999/xlink" xml:space="preserve" style="shape-rendering:geometricPrecision;text-rendering:geometricPrecision;image-rendering:optimizeQuality;" viewBox="0 0 15.5378 15.159125" x="0px" y="0px" fill-rule="evenodd" clip-rule="evenodd"><defs><style type="text/css">
   
    .fil0 {fill:black}
   
  </style></defs><g><path class="fil0" d="M11.8884 0.831205l0.604704 3.20402c1.60001,0.471403 2.00901,0.711805 3.04472,2.01221l-0.840105 0.572104c-0.828505,-1.37791 -2.92412,-1.91541 -4.48603,-1.28721 -1.76871,0.745405 -2.48532,2.18341 -2.22091,4.10343l-0.989406 -0.00450003 -0.0873006 -0.471203 -2.08811 -0.0171001c-0.541203,-1.62411 -2.77402,-2.37242 -4.29683,-1.10051l-0.0211001 -0.940106c-0.425803,-0.0304002 -0.593604,-0.948406 0.0190001,-1.26011 0,-1.33661 -0.291202,-1.15631 2.16881,-1.16531 0.0911006,-1.05461 -0.187401,-0.792705 0.337002,-1.26591 0.00240002,-1.14521 -0.104301,-0.782005 0.320602,-1.58481l0.0397003 1.61861c0.425303,0.291902 0.346702,0.0984006 0.366602,1.24001l0.964006 -0.00600004 0.914106 -3.64692 -0.443203 -0.00200001c-0.00380002,-0.101901 0.398403,-0.700805 0.478003,-0.829905 6.36394,0.151201 4.31523,0.0719005 6.36394,0.151201 0.301102,0.00140001 0.468503,0.679004 -0.148201,0.680004zm-10.3079 4.27973l0 1.55451c0,0.224401 -0.238002,0.234902 -0.238002,0l0 -1.55451c0,-0.229501 0.238002,-0.231701 0.238002,0zm0.301302 0l0 1.55451c0,0.224401 -0.238002,0.234902 -0.238002,0l0 -1.55451c0,-0.229501 0.238002,-0.231701 0.238002,0zm0.293402 0l0 1.55451c0,0.224401 -0.238002,0.234902 -0.238002,0l0 -1.55451c0,-0.229501 0.238002,-0.231701 0.238002,0zm0.302502 -0.00830005l0 1.55451c0,0.224401 -0.238002,0.234902 -0.238002,0l0 -1.55451c0,-0.229501 0.238002,-0.231701 0.238002,0zm0.301302 0l0 1.55451c0,0.224401 -0.238002,0.234902 -0.238002,0l0 -1.55451c0,-0.229501 0.238002,-0.231701 0.238002,0zm0.293402 0l0 1.55451c0,0.224401 -0.238002,0.234902 -0.238002,0l0 -1.55451c0,-0.229501 0.238002,-0.231701 0.238002,0zm6.42524 -0.627904l-4.01233 -0.000300002 0.917706 -3.59882c0.228201,-0.0836005 2.65512,-0.0335002 3.09812,-0.0300002l-0.00350002 3.62912z"/><path class="fil0" d="M11.6236 5.44374c-1.84561,0 -3.34172,1.49611 -3.34172,3.34172 0,1.84561 1.49611,3.34182 3.34172,3.34182 1.84561,0 3.34182,-1.49621 3.34182,-3.34182 0,-1.84561 -1.49621,-3.34172 -3.34182,-3.34172zm0.274502 1.08101c1.26941,0.205401 2.14631,1.24341 1.99301,2.54332 -0.134901,1.14521 -1.21221,2.16351 -2.55592,1.98411 -1.15941,-0.154901 -2.14901,-1.20661 -1.97701,-2.55902 0.141801,-1.11441 1.24791,-2.17751 2.53992,-1.96841z"/><path class="fil0" d="M2.60442 7.45525c0.723805,0.111401 1.13261,0.389403 1.49441,0.821005 0.345302,0.412003 0.595504,1.05431 0.495303,1.76651 -0.168901,1.20021 -1.24221,2.17001 -2.61802,1.97461 -1.16531,-0.165601 -2.14641,-1.23791 -1.95121,-2.61752 0.155201,-1.09621 1.21651,-2.15441 2.57952,-1.94461zm-0.296702 3.09242c-1.05941,-0.00220001 -1.07121,-1.62461 0,-1.62451 1.07221,0.000100001 1.07481,1.62681 0,1.62451z"/><path class="fil0" d="M11.9392 6.82144c1.16681,0.235102 1.83901,1.19341 1.66181,2.28871 -0.165901,1.02531 -1.11051,1.82091 -2.27941,1.65481 -0.998406,-0.141901 -1.87241,-1.09851 -1.67561,-2.29501 0.161401,-0.980906 1.13321,-1.88231 2.29321,-1.64851z"/></g><text x="0" y="27.127299999999998" fill="#000000" font-size="5px" font-weight="bold" font-family="'Helvetica Neue', Helvetica, Arial-Unicode, Arial, Sans-serif">Created by FELIX FX</text><text x="0" y="32.1273" fill="#000000" font-size="5px" font-weight="bold" font-family="'Helvetica Neue', Helvetica, Arial-Unicode, Arial, Sans-serif">from the Noun Project</text></svg>