<svg xmlns:dc="http://purl.org/dc/elements/1.1/" xmlns:cc="http://creativecommons.org/ns#" xmlns:rdf="http://www.w3.org/1999/02/22-rdf-syntax-ns#" xmlns:svg="http://www.w3.org/2000/svg" xmlns="http://www.w3.org/2000/svg" xmlns:sodipodi="http://sodipodi.sourceforge.net/DTD/sodipodi-0.dtd" xmlns:inkscape="http://www.inkscape.org/namespaces/inkscape" version="1.1" x="0px" y="0px" viewBox="0 0 100 125"><g transform="translate(0,-952.36218)"><path style="color:#000000;enable-background:accumulate;" d="m 40.000002,960.36217 c -6.0124,12.9777 -20.4656,2.189 -28.000004,10 1.7546,-13.4355 13.479904,-2.6091 28.000004,-10 z m -18,12 0,24.5 14,7.50003 0,-14.00003 28,14.00003 0,-14.00003 28,14.00003 0,40 -84.000004,0 0,-72.00003 14.000004,0 z m 59,45.00003 -14,0 0,12 14,0 0,-12 z m -24,0 -14,0 0,12 14,0 0,-12 z m -24,0 -14,0 0,12 14,0 0,-12 z" fill="#000000" stroke="none" marker="none" visibility="visible" display="inline" overflow="visible"/></g><text x="0" y="115" fill="#000000" font-size="5px" font-weight="bold" font-family="'Helvetica Neue', Helvetica, Arial-Unicode, Arial, Sans-serif">Created by iconsphere</text><text x="0" y="120" fill="#000000" font-size="5px" font-weight="bold" font-family="'Helvetica Neue', Helvetica, Arial-Unicode, Arial, Sans-serif">from the Noun Project</text></svg>