<svg xmlns="http://www.w3.org/2000/svg" xmlns:xlink="http://www.w3.org/1999/xlink" version="1.1" x="0px" y="0px" viewBox="0 0 100 125" style="enable-background:new 0 0 100 100;" xml:space="preserve"><style type="text/css">
	.st0{fill:none;stroke:#000000;stroke-width:2;stroke-linecap:round;stroke-linejoin:round;stroke-miterlimit:10;}
</style><path d="M64.3,65.4c0.4,0.1,0.9,0.1,1.3,0.1c1.8,0,3.6-0.6,5.1-1.7c1.8-1.4,3.1-3.4,3.4-5.6c0.7-4.7-2.5-9.1-7.2-9.8  c-4.7-0.7-9.1,2.5-9.8,7.2c-0.3,2.3,0.2,4.5,1.6,6.4C60,63.8,62,65.1,64.3,65.4z M59,55.9c0.5-3.6,3.9-6.1,7.5-5.5  c3.6,0.5,6.1,3.9,5.5,7.5c-0.3,1.7-1.2,3.3-2.6,4.3c-1.4,1-3.2,1.5-4.9,1.2c-1.7-0.3-3.3-1.2-4.3-2.6C59.2,59.4,58.8,57.6,59,55.9z"/><path d="M67.2,46.4c0.1,0,0.1,0,0.2,0c0.5,0,0.9-0.4,1-0.9l0.6-4.1c0.1-0.5-0.3-1.1-0.8-1.1c-0.5-0.1-1.1,0.3-1.1,0.8l-0.6,4.1  C66.3,45.8,66.6,46.3,67.2,46.4z"/><path d="M72.8,48.8c0.3,0,0.6-0.1,0.8-0.4l2.5-3.2c0.3-0.4,0.3-1.1-0.2-1.4c-0.4-0.3-1.1-0.3-1.4,0.2L72,47.2  c-0.3,0.4-0.3,1.1,0.2,1.4C72.4,48.7,72.6,48.8,72.8,48.8z"/><path d="M75.5,53c0.2,0.4,0.5,0.6,0.9,0.6c0.1,0,0.3,0,0.4-0.1l3.8-1.5c0.5-0.2,0.8-0.8,0.6-1.3c-0.2-0.5-0.8-0.8-1.3-0.6l-3.8,1.5  C75.6,51.9,75.3,52.5,75.5,53z"/><path d="M76.2,58.5c-0.1,0.5,0.3,1.1,0.9,1.1l4.1,0.5c0,0,0.1,0,0.1,0c0.5,0,0.9-0.4,1-0.9c0.1-0.5-0.3-1.1-0.9-1.1l-4.1-0.5  C76.8,57.6,76.3,57.9,76.2,58.5z"/><path d="M74.1,63.6c-0.3,0.4-0.2,1.1,0.2,1.4l3.3,2.5c0.2,0.1,0.4,0.2,0.6,0.2c0.3,0,0.6-0.1,0.8-0.4c0.3-0.4,0.2-1.1-0.2-1.4  l-3.3-2.5C75.1,63.1,74.4,63.2,74.1,63.6z"/><path d="M69.7,67c-0.5,0.2-0.7,0.8-0.5,1.3l1.6,3.8c0.2,0.4,0.5,0.6,0.9,0.6c0.1,0,0.3,0,0.4-0.1c0.5-0.2,0.7-0.8,0.5-1.3l-1.6-3.8  C70.8,67,70.3,66.8,69.7,67z"/><path d="M56.1,70.9c0.3,0,0.6-0.1,0.8-0.4l2.4-3.3c0.3-0.4,0.2-1.1-0.2-1.4c-0.4-0.3-1.1-0.2-1.4,0.2l-2.4,3.3  c-0.3,0.4-0.2,1.1,0.2,1.4C55.7,70.8,55.9,70.9,56.1,70.9z"/><path d="M55.7,61.4c-0.2-0.5-0.8-0.7-1.3-0.5l-3.7,1.7c-0.5,0.2-0.7,0.8-0.5,1.3c0.2,0.4,0.5,0.6,0.9,0.6c0.1,0,0.3,0,0.4-0.1  l3.7-1.7C55.7,62.5,55.9,61.9,55.7,61.4z"/><path d="M49.6,56.5l4.1,0.4c0,0,0.1,0,0.1,0c0.5,0,0.9-0.4,1-0.9c0.1-0.5-0.3-1-0.9-1.1l-4.1-0.4c-0.5,0-1,0.3-1.1,0.9  C48.7,55.9,49.1,56.4,49.6,56.5z"/><path d="M55.3,51c0.2,0.1,0.4,0.2,0.6,0.2c0.3,0,0.6-0.1,0.8-0.4c0.3-0.5,0.2-1.1-0.2-1.4L53.1,47c-0.5-0.3-1.1-0.2-1.4,0.2  s-0.2,1.1,0.2,1.4L55.3,51z"/><path d="M59.6,46.8c0.2,0.4,0.5,0.6,0.9,0.6c0.1,0,0.3,0,0.4-0.1c0.5-0.2,0.7-0.8,0.5-1.3l-1.7-3.7c-0.2-0.5-0.8-0.7-1.3-0.5  c-0.5,0.2-0.7,0.8-0.5,1.3L59.6,46.8z"/><path d="M29,44.3v25.1c0,10.1,8.2,18.2,18.2,18.2s18.2-8.2,18.2-18.2c0-0.6-0.4-1-1-1s-1,0.4-1,1c0,9-7.3,16.2-16.2,16.2  c-9,0-16.2-7.3-16.2-16.2V44.3c5.4-0.6,9.7-5.2,9.7-10.8v-9.8c0-0.6-0.4-1-1-1h-3c0-0.1,0.1-0.2,0.1-0.3v-9.2c0-0.6-0.4-1-1-1  s-1,0.4-1,1v9.2c0,0.1,0,0.2,0.1,0.3h-9.9c0-0.1,0.1-0.2,0.1-0.3v-9.2c0-0.6-0.4-1-1-1s-1,0.4-1,1v9.2c0,0.1,0,0.2,0.1,0.3h-3  c-0.6,0-1,0.4-1,1v9.8C19,39.2,23.4,43.9,29,44.3z M21,24.7h17.7v8.8c0,4.9-4,8.8-8.8,8.8s-8.8-4-8.8-8.8V24.7z"/><text x="0" y="115" fill="#000000" font-size="5px" font-weight="bold" font-family="'Helvetica Neue', Helvetica, Arial-Unicode, Arial, Sans-serif">Created by Made by Made</text><text x="0" y="120" fill="#000000" font-size="5px" font-weight="bold" font-family="'Helvetica Neue', Helvetica, Arial-Unicode, Arial, Sans-serif">from the Noun Project</text></svg>