<svg xmlns="http://www.w3.org/2000/svg" width="418" height="306" viewBox="0 0 418 306"><path fill="#01baef" d="M76.83 246.254h3V137.27h-3zm6.73 0h3V137.27h-3z"/><path fill="#01baef" d="M204.733 256.394H55.56l-1.5-1.5v-8.524l1.5-1.5h149.173l1.5 1.5v8.524zm-147.673-3h146.173v-5.524H57.06zm301.61 52.51h3V254.89h-3z"/><path fill="#01baef" d="M136.023 246.955L100.12 136.709l2.853-.929 35.903 110.245zm7.85 0L107.97 136.709l2.852-.929 35.904 110.245zm219.003-42.541H197.22v-3h164.86l4.856-7.154 2.039 1.565-4.857 7.931z"/><path fill="#01baef" d="M367.267 197.934H202.762v-3h160.2L279.67 128.87H115.43v-3h164.763l.932.325 87.074 69.064zm1.89 58.46H204.4v-3h163.257v-5.524H204.4v-3h164.757l1.5 1.5v8.524zM62.75 247.708h-3V225.5l1.5-1.5h17.078v3H62.75zM94.2 218.28h21.008v-3H94.2zm-1-41.58h21.008v-3H93.2zm49.13 0h21.008v-3H142.33zm1.5 41.58h37.013v-3H143.83z"/><path fill="#01baef" d="M197.222 204.408l-82.321-66.449H61.25l-1.5-1.5V118.99l1.5-1.5h9.309l1.5 1.5v6.875h43.372l.932.325 87.076 69.064.326 1.991-4.39 6.778zM62.75 134.961h52.681l.943.333 81.389 65.711 2.743-4.239-85.597-67.9h-44.35l-1.5-1.5v-6.876H62.75zm5.75 170.943h3V254.89h-3zm-8.75 0h3V254.89h-3zm138.67 0h3V254.89h-3zm-8.75 0h3V254.89h-3zm-72.39-.004h3v-52.34h-3zm25.05 0h3v-52.34h-3zm22.91 0h3v-52.34h-3zm60.49-17.309V271.63h6.283v16.961h3V268.63H222.73v19.961z"/><path fill="#01baef" d="M220.31 290.09h17.105v-3H220.31zm39.52-1.499V271.63h6.283v16.961h3V268.63H256.83v19.961z"/><path fill="#01baef" d="M254.42 290.09h17.106v-3H254.42zm39.52-1.499V271.63h6.282v16.961h3V268.63H290.94v19.961z"/><path fill="#01baef" d="M288.52 290.09h17.106v-3H288.52zm39.52-1.499V271.63h6.282v16.961h3V268.63H325.04v19.961z"/><path fill="#01baef" d="M322.63 290.09h17.106v-3H322.63zm-135.55-71.81h19.517v-3H187.08z"/><path fill="#0b4f6c" d="M320.309 190.226h-92.794l-63.885-49.681V128.97h3v10.108l61.914 48.148h88.814v-7.191h2.951z"/><path fill="#0b4f6c" d="M319.373 182.734h-88.232l-.937-.328-66.574-53.436.869-2.47h88.233l.937.328 66.641 53.207zm-87.707-3h83.426L252.207 129.5H168.78z"/><path fill="#0b4f6c" d="M186.71 147.24h88.411v-3H186.71zm22.22 17.75h87.945v-3H208.93z"/><path fill="#0b4f6c" d="M259.417 182.4l-66.827-53.233 1.869-2.347 66.827 53.234zm29.55 0l-66.827-53.233 1.869-2.347 66.827 53.234z"/><path fill="#01baef" d="M347.84 246.251h3V203.21h-3zm-162.26-.001h3v-52.03h-3zM375.152 55.322c-9.49 0-17.212-7.721-17.212-17.211 0-9.49 7.722-17.211 17.212-17.211 9.49 0 17.211 7.721 17.211 17.211 0 9.49-7.721 17.211-17.211 17.211m0-31.422c-7.837 0-14.211 6.375-14.211 14.211s6.374 14.211 14.211 14.211c7.836 0 14.21-6.375 14.21-14.211S382.988 23.9 375.152 23.9m-1.492-11.233h3V0h-3zm-12.526 4.164L354.8 5.86l2.598-1.5 6.334 10.971zm-8.764 9.861l-10.97-6.334 1.5-2.598 10.97 6.334zM337.04 39.61h12.668v-3H337.04zm5.86 18.862l-1.5-2.598 10.97-6.334 1.5 2.598zm14.498 13.399l-2.598-1.5 6.334-10.971 2.598 1.5zm16.262 4.356h3V63.56h-3zm19.253-4.356L386.58 60.9l2.598-1.5 6.333 10.971zm14.498-13.399l-10.971-6.334 1.5-2.598 10.971 6.334zM400.6 39.61h12.667v-3H400.6zm-2.66-12.918l-1.5-2.598 10.971-6.334 1.5 2.598zm-8.762-9.861l-2.598-1.5 6.333-10.971 2.598 1.5zM215.181 42.588H109.403l-.363-.978a16.67 16.67 0 01-1.06-5.821c0-9.227 7.507-16.735 16.735-16.735 2.771 0 5.46.677 7.875 1.97 3.791-8.368 12.216-13.874 21.507-13.874 10.341 0 19.423 6.712 22.503 16.472a18.233 18.233 0 0111.949 4.043 16.978 16.978 0 0111.051-4.049c9.428 0 17.099 7.671 17.099 17.1 0 .105-.005.208-.012.31l-.035 1.465zm-1.527-3c-.576-7.25-6.66-12.972-14.054-12.972a14.011 14.011 0 00-9.96 4.12l-1.025 1.023-1.058-.988a15.396 15.396 0 00-11.933-4.088l-1.267.113-.32-1.231c-2.351-9.077-10.551-15.416-19.94-15.416-8.642 0-16.427 5.457-19.371 13.58l-.66 1.822-1.598-1.095a13.645 13.645 0 00-7.753-2.402c-7.574 0-13.735 6.162-13.735 13.736 0 1.277.184 2.55.548 3.799zM7.08 89.72h54.171v-3H7.08zm39.74-17.33h102.343v-3H46.82zm38.24 29.29h22.918v-3H85.06zm-74.87 72.18h25.443v-3H10.19zm93.11 132.047h-3V274.9H88.23v31.007h-3V271.9h18.07zm193.831-209.34l-2.121-2.121 26.336-26.336 2.121 2.121zm16.53 10.676l-2.121-2.121 15.751-15.752 2.121 2.122zm1.72 26.299l-2.121-2.121 40.472-40.471 2.121 2.121zM278.46 246.251h-3V213.09h-57.8v33.161h-3V211.59l1.5-1.5h60.8l1.5 1.5z"/><path fill="#01baef" d="M337.761 210.09H276.5v3h59.761v33.161h3V211.59zm-37.8 37.221l-2.121-2.121 10.938-10.94 2.121 2.122z"/><path fill="#01baef" d="M301.651 232.75l-2.121-2.121 8.648-8.649 2.121 2.122zm-58.4 14.452l-2.121-2.121 24.183-24.181 2.121 2.121zm1.58-14.452l-2.121-2.121 8.648-8.649 2.121 2.122z"/><path fill="#0b4f6c" d="M40.32 255.918H9.05l15.635-29.198zm-26.26-3h21.25l-10.625-19.843z"/><path fill="#0b4f6c" d="M43.335 275.057H6.04l11.424-21.327 2.646 1.416-9.059 16.911h27.273l-9.058-16.911 2.646-1.416z"/><path fill="#0b4f6c" d="M48.895 298.518H.48l13.474-25.156 2.645 1.416-11.108 20.74h38.393l-11.381-21.252 2.644-1.416z"/><path fill="#0b4f6c" d="M27.67 305.407h3v-8.387h-3zm-8.96 0h3v-8.387h-3zm391.61-41.736h-27.28l13.64-25.471zm-22.27-3.01h17.26l-8.63-16.105z"/><path fill="#0b4f6c" d="M412.871 279.892H380.49l9.865-18.422 2.645 1.416-7.5 14.006h22.361l-7.5-14.006 2.645-1.416z"/><path fill="#0b4f6c" d="M417.581 299.793H375.77l11.604-21.669 2.645 1.416-9.239 17.253h31.791l-9.47-17.687 2.644-1.416z"/><path fill="#0b4f6c" d="M398.98 305.402h3v-7.112h-3zm-7.6 0h3v-7.112h-3z"/></svg>